<svg width="22px" height="18px" viewBox="0 0 22 18" version="1.1" xmlns="http://www.w3.org/2000/svg" xmlns:xlink="http://www.w3.org/1999/xlink">
    <!-- Generator: Sketch 51.3 (57544) - http://www.bohemiancoding.com/sketch -->
    <desc>Created with Sketch.</desc>
    <defs></defs>
    <g id="Page-1" stroke="none" stroke-width="1" fill="none" fill-rule="evenodd">
        <g id="Home" transform="translate(-250.000000, -170.000000)" fill="#ECFFD8" fill-rule="nonzero">
            <path d="M257.656072,188 C255.79634,188 253.075622,187.653846 250.768177,185.992308 C250.079387,185.507692 249.803872,184.573077 250.148266,183.776923 C250.458222,182.980769 251.319208,182.530769 252.180195,182.703846 C252.180195,182.703846 252.52459,182.773077 253.041182,182.738462 C252.696787,182.253846 252.386832,181.7 252.180195,181.111538 C252.111316,180.903846 252.076877,180.730769 252.076877,180.523077 C251.21589,179.519231 250.768177,178.273077 250.768177,176.888462 C250.768177,176.576923 250.837056,176.265385 251.009253,176.023077 C250.699298,174.846154 250.595979,173.288462 251.594724,171.626923 C251.90468,171.142308 252.421272,170.796154 253.006743,170.726923 C253.041182,170.726923 253.041182,170.726923 253.075622,170.726923 C253.695532,170.692308 254.246564,170.934615 254.625398,171.35 C254.866474,171.592308 256.726206,173.565385 259.10253,174.223077 C259.653562,171.8 261.857688,170 264.509528,170 C265.68047,170 266.816972,170.346154 267.712399,171.003846 C267.953475,170.934615 268.26343,170.830769 268.538946,170.623077 C269.089978,170.242308 269.813207,170.173077 270.398678,170.484615 C270.984149,170.761538 271.397423,171.315385 271.466302,171.973077 C271.466302,172.007692 271.466302,172.042308 271.466302,172.076923 C271.466302,172.111538 271.466302,172.180769 271.466302,172.284615 C271.948454,172.769231 272.120652,173.461538 271.914015,174.084615 C271.741817,174.673077 271.190786,175.4 270.054283,176.438462 C269.985404,179 268.780023,185.853846 260.204593,187.792308 C260.135714,187.792308 259.10253,188 257.656072,188 Z M251.87024,184.4 C251.801361,184.4 251.766922,184.434615 251.766922,184.434615 C251.766922,184.434615 251.766922,184.469231 251.766922,184.469231 C251.732482,184.503846 251.732482,184.538462 251.766922,184.573077 C253.695532,185.992308 256.037417,186.269231 257.656072,186.269231 C258.930333,186.269231 259.825759,186.096154 259.860198,186.096154 C267.64352,184.330769 268.401188,177.926923 268.435628,175.988462 C268.435628,175.746154 268.538946,175.503846 268.711144,175.365385 C270.157602,174.084615 270.329799,173.634615 270.329799,173.6 C270.364238,173.530769 270.295359,173.461538 270.26092,173.461538 C270.26092,173.461538 270.226481,173.426923 270.226481,173.426923 C269.847646,173.253846 269.641009,172.803846 269.778767,172.388462 C269.813207,172.284615 269.813207,172.215385 269.813207,172.146154 C269.813207,172.111538 269.778767,172.076923 269.744328,172.042308 C269.709888,172.042308 269.709888,172.007692 269.675449,172.007692 C269.641009,172.007692 269.60657,172.007692 269.537691,172.042308 C268.780023,172.561538 267.987915,172.734615 267.60908,172.769231 C267.368004,172.803846 267.161367,172.734615 266.98917,172.596154 C266.33482,172.042308 265.439393,171.765385 264.543967,171.765385 C262.443159,171.765385 260.755625,173.323077 260.686746,175.365385 C260.686746,175.607692 260.583427,175.85 260.376791,175.988462 C260.204593,176.161538 259.963517,176.230769 259.72244,176.196154 C256.45069,175.746154 253.86773,173.115385 253.351138,172.596154 C253.351138,172.596154 253.316698,172.561538 253.316698,172.561538 C253.282259,172.526923 253.21338,172.526923 253.17894,172.526923 C253.110061,172.526923 253.075622,172.596154 253.041182,172.630769 C252.421272,173.669231 252.352393,174.776923 252.800106,175.884615 C252.937864,176.230769 252.868985,176.646154 252.55903,176.888462 C252.52459,176.923077 252.490151,176.957692 252.490151,176.957692 C252.490151,178.065385 252.834545,178.965385 253.592214,179.657692 C253.83329,179.9 253.902169,180.211538 253.83329,180.523077 C253.83329,180.557692 253.83329,180.592308 253.83329,180.626923 C254.108806,181.492308 254.659838,182.184615 255.417506,182.634615 C255.693022,182.807692 255.865219,183.119231 255.83078,183.465385 C255.79634,183.811538 255.555264,184.088462 255.245309,184.192308 C253.661093,184.711538 251.973558,184.469231 251.90468,184.434615 C251.90468,184.4 251.87024,184.4 251.87024,184.4 Z" id="Shape"></path>
        </g>
    </g>
</svg>
