
<svg width="23px" height="22px" viewBox="0 0 23 22" version="1.1" xmlns="http://www.w3.org/2000/svg" xmlns:xlink="http://www.w3.org/1999/xlink">
    <!-- Generator: Sketch 51.3 (57544) - http://www.bohemiancoding.com/sketch -->
    <desc>Created with Sketch.</desc>
    <defs></defs>
    <g id="Page-1" stroke="none" stroke-width="1" fill="none" fill-rule="evenodd">
        <g id="Portfolio-Landing-Copy" transform="translate(-850.000000, -746.000000)" fill="#ECFFD8" fill-rule="nonzero">
            <path d="M860.280524,768 C859.585421,768 858.926902,768 858.231798,767.962775 C856.402579,767.888325 854.134347,767.62775 852.451465,766.175973 C851.134428,765.021997 850.292987,763.235195 850.07348,760.927242 C849.853974,758.954315 850.110065,756.125212 851.061259,754.189509 C851.975868,752.328257 854.353853,751.174281 855.451385,750.57868 C855.597723,750.50423 855.780644,750.392555 855.853813,750.35533 C857.683033,749.201354 859.109824,748.196277 860.317108,747.191201 C860.975627,746.670051 861.780484,746 862.804846,746 C863.975547,746 865.109663,746.856176 865.475507,748.047377 C865.768182,748.978003 865.658428,750.05753 865.109663,751.099831 C864.99991,751.285956 864.890156,751.472081 864.780403,751.658206 C866.17061,751.658206 867.560817,751.658206 868.914439,751.695431 C869.682711,751.732657 870.414399,751.769882 871.146086,752.104907 C871.950943,752.477157 872.609462,753.258883 872.865552,754.189509 C873.121643,755.08291 873.01189,756.013536 872.536293,756.758037 C872.389955,756.981387 872.243618,757.167513 872.024112,757.353638 C872.024112,757.353638 872.024112,757.353638 872.024112,757.353638 C871.365593,757.986464 870.414399,758.358714 869.316867,758.470389 C868.694932,758.544839 868.109582,758.507614 867.524232,758.470389 C867.560817,759.326565 867.304726,760.219966 866.719376,760.890017 C866.975466,762.006768 866.646207,763.235195 865.84135,764.054146 C865.951104,764.612521 865.914519,765.208122 865.731597,765.803723 C865.438922,766.697124 864.780403,767.367174 863.975547,767.7022 C863.317028,767.962775 862.58534,767.962775 862.036574,768 C861.487809,768 860.865874,768 860.280524,768 Z M862.878015,747.898477 C862.878015,747.898477 862.878015,747.898477 862.878015,747.898477 C862.439003,747.898477 861.963406,748.307953 861.487809,748.680203 C860.207355,749.722504 858.707395,750.764805 856.841592,751.956007 C856.731838,752.030457 856.548917,752.104907 856.292826,752.253807 C855.414801,752.700508 853.366075,753.742809 852.707556,755.045685 C851.9027,756.609137 851.719778,759.103215 851.9027,760.741117 C852.049037,762.006768 852.451465,763.71912 853.65875,764.761421 C854.902619,765.840948 856.805007,766.027073 858.304967,766.101523 C859.548836,766.138748 860.82929,766.138748 862.036574,766.138748 C862.512171,766.138748 862.987768,766.138748 863.353612,765.989848 C863.646287,765.878173 863.938962,765.580372 864.048716,765.208122 C864.158469,764.873096 864.158469,764.500846 864.012131,764.240271 C863.75604,763.79357 863.902378,763.235195 864.341391,762.974619 C864.963325,762.602369 865.219416,761.708968 864.890156,761.113367 C864.67065,760.703892 864.816988,760.182741 865.182831,759.922166 C865.731597,759.51269 865.914519,758.619289 865.548675,758.023689 C865.365753,757.725888 865.365753,757.353638 865.512091,757.055838 C865.658428,756.758037 865.987688,756.571912 866.316947,756.571912 C866.682791,756.571912 867.08522,756.609137 867.451063,756.609137 C868.109582,756.646362 868.658348,756.683587 869.207114,756.646362 C869.865633,756.571912 870.487567,756.348562 870.816827,756.013536 C870.889996,755.939086 870.963164,755.827411 871.036333,755.752961 C871.219255,755.492386 871.255839,755.120135 871.146086,754.71066 C871.036333,754.301184 870.743658,753.966159 870.414399,753.817259 C870.01197,753.631134 869.499789,753.593909 868.914439,753.593909 C866.902298,753.519459 864.890156,753.556684 862.9146,753.593909 C862.9146,753.593909 862.9146,753.593909 862.9146,753.593909 C862.548756,753.593909 862.219496,753.370558 862.073159,753.035533 C861.926821,752.700508 861.99999,752.291032 862.219496,752.030457 C862.695093,751.472081 863.207275,750.913706 863.536534,750.28088 C863.829209,749.685279 863.902378,749.126904 863.75604,748.642978 C863.609703,748.233503 863.243859,747.898477 862.878015,747.898477 Z" id="Shape"></path>
        </g>
    </g>
</svg>
