
<svg width="64px" height="64px" viewBox="0 0 64 64" version="1.1" xmlns="http://www.w3.org/2000/svg" xmlns:xlink="http://www.w3.org/1999/xlink">
    <!-- Generator: Sketch 51.3 (57544) - http://www.bohemiancoding.com/sketch -->
    <desc>Created with Sketch.</desc>
    <defs></defs>
    <g id="Page-1" stroke="none" stroke-width="1" fill="none" fill-rule="evenodd">
        <path d="M60.3,42.4 L51.8,33.9 C47.5,29.6 40.6,29.1 35.8,32.6 L31,27.8 C32.3,25.7 33.1,23.3 33.1,20.9 C33.1,17.4 31.8,14.2 29.4,11.9 L21.4,3.7 C16.6,-1.1 8.6,-1.1 3.8,3.7 C1.5,6 0.2,8.9 0.2,12.4 C0.2,15.9 1.5,18.8 3.9,21.2 L12.1,29.7 C14.5,32.1 17.7,33.4 20.9,33.4 C23,33.4 25.4,32.9 27.3,31.5 L32.4,36.6 C31.3,38.5 30.5,40.6 30.5,43 C30.5,46.5 31.8,49.4 34.2,51.8 L42.4,60.3 C44.8,62.7 48,64 51.2,64 C54.4,64 57.6,62.7 60,60.3 C62.4,57.9 63.7,55 63.7,51.5 C64,48 62.7,44.8 60.3,42.4 Z M15.9,25.9 L7.7,17.4 C6.4,16.1 5.6,14.2 5.6,12.3 C5.6,10.4 6.4,8.6 7.7,7.2 C9,5.8 10.9,5.1 12.8,5.1 C14.7,5.1 16.5,5.9 17.9,7.2 L26.4,15.7 C27.7,17 28.5,18.9 28.5,20.8 C28.5,21.9 28.2,22.9 27.7,24 L25.3,21.6 C24.2,20.5 22.6,20.5 21.6,21.6 C20.5,22.7 20.5,24.3 21.6,25.3 L23.7,27.4 C20.9,28.3 18,27.8 15.9,25.9 Z M56.6,56.3 C53.7,59.2 49.1,59.2 46.5,56.3 L38,47.8 C36.7,46.5 35.9,44.6 35.9,42.7 C35.9,41.9 36.2,41.1 36.4,40.3 L38.5,42.4 C39,42.9 39.8,43.2 40.4,43.2 C41.2,43.2 41.7,42.9 42.3,42.4 C43.4,41.3 43.4,39.7 42.3,38.7 L40.2,36.3 C41.3,35.8 42.3,35.5 43.4,35.5 C45.3,35.5 47.1,36.3 48.5,37.6 L57,46.1 C58.3,47.4 59.1,49.3 59.1,51.2 C58.7,53.1 57.9,55 56.6,56.3 Z" id="Shape" fill="#ECFFD8" fill-rule="nonzero"></path>
    </g>
</svg>
