<svg width="18px" height="18px" viewBox="0 0 18 18" version="1.1" xmlns="http://www.w3.org/2000/svg" xmlns:xlink="http://www.w3.org/1999/xlink">
    <!-- Generator: Sketch 51.3 (57544) - http://www.bohemiancoding.com/sketch -->
    <desc>Created with Sketch.</desc>
    <defs></defs>
    <g id="Page-1" stroke="none" stroke-width="1" fill="none" fill-rule="evenodd">
        <g id="Home" transform="translate(-425.000000, -170.000000)" fill="#ECFFD8" fill-rule="nonzero">
            <g id="Group" transform="translate(425.000000, 170.000000)">
                <path d="M9,5 C6.78666667,5 5,6.8013245 5,9 C5,11.1986755 6.78666667,13 9,13 C11.2133333,13 13,11.1986755 13,9 C13,6.8013245 11.2133333,5 9,5 Z M9,11.6754967 C7.53333333,11.6754967 6.33333333,10.4834437 6.33333333,9 C6.33333333,7.51655629 7.53333333,6.32450331 9,6.32450331 C10.4666667,6.32450331 11.6666667,7.51655629 11.6666667,9 C11.6666667,10.4834437 10.4666667,11.6754967 9,11.6754967 Z" id="Shape"></path>
                <path d="M13.5,3 C12.66,3 12,3.69 12,4.5 C12,5.31 12.66,6 13.5,6 C14.34,6 15,5.31 15,4.5 C15,3.69 14.34,3 13.5,3 Z" id="Shape"></path>
                <path d="M13.5,0 L4.5,0 C2.025,0 0,2.025 0,4.5 L0,13.415625 C0,15.946875 2.053125,18 4.584375,18 L13.44375,18 C15.946875,18 18,15.946875 18,13.415625 L18,4.5 C18,2.025 15.975,0 13.5,0 Z M16.59375,13.415625 C16.59375,15.159375 15.1875,16.59375 13.44375,16.59375 L4.584375,16.59375 C2.840625,16.59375 1.40625,15.1875 1.40625,13.44375 L1.40625,4.5 C1.40625,2.784375 2.784375,1.40625 4.5,1.40625 L13.5,1.40625 C15.215625,1.40625 16.59375,2.784375 16.59375,4.5 L16.59375,13.415625 Z" id="Shape"></path>
            </g>
        </g>
    </g>
</svg>
