<svg width="17px" height="19px" viewBox="0 0 17 19" version="1.1" xmlns="http://www.w3.org/2000/svg" xmlns:xlink="http://www.w3.org/1999/xlink">
    <!-- Generator: Sketch 51.3 (57544) - http://www.bohemiancoding.com/sketch -->
    <desc>Created with Sketch.</desc>
    <defs></defs>
    <g id="Page-1" stroke="none" stroke-width="1" fill="none" fill-rule="evenodd">
        <g id="Portfolio-Landing-Copy" transform="translate(-850.000000, -667.000000)" fill="#ECFFD8" fill-rule="nonzero">
            <path d="M856.431126,686 C856.33849,686 856.184096,686 856.09146,685.910908 C855.751794,685.732723 855.566522,685.406051 855.566522,684.990287 L856.770792,678.902315 L850.872957,678.902315 C850.533291,678.902315 850.255383,678.72413 850.100989,678.397458 C849.915717,678.159879 850.008353,677.80351 850.193625,677.56593 L858.160334,667.350015 C858.407364,667.112436 858.777908,666.934251 859.117574,667.023343 C859.45724,667.201528 859.735149,667.5282 859.735149,667.854871 L859.735149,673.111316 L866.127043,673.111316 C866.466709,673.111316 866.744617,673.289501 866.899011,673.616172 C867.084283,673.942844 866.991647,674.269516 866.806375,674.536793 L857.110458,685.762421 C856.956064,685.910908 856.678156,686 856.431126,686 Z M852.602165,677.268956 L857.78979,677.268956 C858.036819,677.268956 858.314728,677.358048 858.469121,677.595628 C858.654394,677.773812 858.716151,678.011392 858.654394,678.248971 L857.882426,682.169032 L864.27432,674.744675 L858.839666,674.744675 C858.314728,674.744675 857.975062,674.418003 857.975062,673.913147 L857.975062,670.349455 L852.602165,677.268956 Z" id="Shape"></path>
        </g>
    </g>
</svg>
