<svg width="22px" height="18px" viewBox="0 0 22 18" version="1.1" xmlns="http://www.w3.org/2000/svg" xmlns:xlink="http://www.w3.org/1999/xlink">
    <!-- Generator: Sketch 51.3 (57544) - http://www.bohemiancoding.com/sketch -->
    <desc>Created with Sketch.</desc>
    <defs></defs>
    <g id="Page-1" stroke="none" stroke-width="1" fill="none" fill-rule="evenodd">
        <g id="Portfolio-Landing-Copy" transform="translate(-850.000000, -707.000000)" fill="#ECFFD8" fill-rule="nonzero">
            <g id="Group" transform="translate(850.000000, 707.000000)">
                <path d="M11,10 C7.7,10 5,7.75 5,5 C5,2.25 7.7,0 11,0 C14.3,0 17,2.25 17,5 C17,7.75 14.3,10 11,10 Z M11,1.6875 C8.7875,1.6875 6.9875,3.1875 6.9875,5.03125 C6.9875,6.875 8.825,8.34375 11,8.34375 C13.175,8.34375 15.0125,6.84375 15.0125,5 C15.0125,3.15625 13.2125,1.6875 11,1.6875 Z" id="Shape"></path>
                <path d="M0.958535648,18 C0.683702069,18 0.40886849,17.90625 0.237097502,17.65625 C-0.140798669,17.3125 -0.0377360768,16.75 0.340160095,16.5 C3.36332947,14.25 7.10793699,13 11.0586697,13 C15.0094024,13 18.7540099,14.25 21.6741167,16.5 C22.0520129,16.84375 22.1207213,17.34375 21.7771793,17.65625 C21.3992831,18 20.849616,18.0625 20.506074,17.75 C17.895155,15.75 14.5284436,14.65625 11.0243155,14.65625 C7.52018735,14.65625 4.15347601,15.75 1.50820281,17.8125 C1.40514021,17.90625 1.13030664,18 0.958535648,18 Z" id="Shape"></path>
            </g>
        </g>
    </g>
</svg>
